HIERARCHY
ROOT Hips
{
	OFFSET -0.001795 -0.223333 0.028219
	CHANNELS 6 Xposition Yposition Zposition Zrotation Yrotation Xrotation 
	JOINT LeftUpLeg
	{
		OFFSET 0.069520 -0.091406 -0.006815
		CHANNELS 3 Zrotation Yrotation Xrotation
		JOINT LeftLeg
		{
			OFFSET 0.034277 -0.375199 -0.004496
			CHANNELS 3 Zrotation Yrotation Xrotation
			JOINT LeftFoot
			{
				OFFSET -0.013596 -0.397961 -0.043693
				CHANNELS 3 Zrotation Yrotation Xrotation
				JOINT LeftToe
				{
					OFFSET 0.026358 -0.055791 0.119288
					CHANNELS 3 Zrotation Yrotation Xrotation
					End Site
					{
						OFFSET 0.000000 0.000000 0.000000
					}
				}
			}
		}
	}
	JOINT RightUpLeg
	{
		OFFSET -0.067670 -0.090522 -0.004320
		CHANNELS 3 Zrotation Yrotation Xrotation
		JOINT RightLeg
		{
			OFFSET -0.038290 -0.382569 -0.008850
			CHANNELS 3 Zrotation Yrotation Xrotation
			JOINT RightFoot
			{
				OFFSET 0.015774 -0.398415 -0.042312
				CHANNELS 3 Zrotation Yrotation Xrotation
				JOINT RightToe
				{
					OFFSET -0.025372 -0.048144 0.123348
					CHANNELS 3 Zrotation Yrotation Xrotation
					End Site
					{
						OFFSET 0.000000 0.000000 0.000000
					}
				}
			}
		}
	}
	JOINT Spine
	{
		OFFSET -0.002533 0.108963 -0.026696
		CHANNELS 3 Zrotation Yrotation Xrotation
		JOINT Spine1
		{
			OFFSET 0.005487 0.135180 0.001092
			CHANNELS 3 Zrotation Yrotation Xrotation
			JOINT Spine2
			{
				OFFSET 0.001457 0.052922 0.025425
				CHANNELS 3 Zrotation Yrotation Xrotation
				JOINT Neck
				{
					OFFSET -0.002778 0.213870 -0.042857
					CHANNELS 3 Zrotation Yrotation Xrotation
					JOINT Head
					{
						OFFSET 0.005152 0.064970 0.051349
						CHANNELS 3 Zrotation Yrotation Xrotation
						End Site
						{
							OFFSET 0.000000 0.000000 0.000000
						}
					}
				}
				JOINT LeftShoulder
				{
					OFFSET 0.078845 0.121749 -0.034090
					CHANNELS 3 Zrotation Yrotation Xrotation
					JOINT LeftArm
					{
						OFFSET 0.090977 0.030469 -0.008868
						CHANNELS 3 Zrotation Yrotation Xrotation
						JOINT LeftForeArm
						{
							OFFSET 0.259612 -0.012772 -0.027456
							CHANNELS 3 Zrotation Yrotation Xrotation
							JOINT LeftHand
							{
								OFFSET 0.249234 0.008986 -0.001171
								CHANNELS 3 Zrotation Yrotation Xrotation
								End Site
								{
									OFFSET 0.000000 0.000000 0.000000
								}
							}
						}
					}
				}
				JOINT RightShoulder
				{
					OFFSET -0.081759 0.118833 -0.038615
					CHANNELS 3 Zrotation Yrotation Xrotation
					JOINT RightArm
					{
						OFFSET -0.096012 0.032551 -0.009143
						CHANNELS 3 Zrotation Yrotation Xrotation
						JOINT RightForeArm
						{
							OFFSET -0.253742 -0.013329 -0.021401
							CHANNELS 3 Zrotation Yrotation Xrotation
							JOINT RightHand
							{
								OFFSET -0.255298 0.007772 -0.005559
								CHANNELS 3 Zrotation Yrotation Xrotation
								End Site
								{
									OFFSET 0.000000 0.000000 0.000000
								}
							}
						}
					}
				}
			}
		}
	}
}
MOTION
Frames: 11
Frame Time: 0.050000
-0.088822 0.899902 0.423593 -3.641747 5.898889 -4.104108 6.616875 -0.413011 -8.520173 -3.284485 -0.492407 29.222684 4.542005 7.135307 -6.111754 0.000000 0.000000 0.000000 0.745782 1.966630 -20.001482 5.394072 -1.649452 31.306442 -4.161050 -11.095654 4.360879 0.000000 0.000000 0.000000 -4.731660 -0.176861 15.709693 5.733873 -0.415523 -29.084615 -2.231148 -8.526628 30.090152 -3.293084 2.651876 -28.611349 0.000000 0.000000 0.000000 -15.428860 -2.802542 1.685204 -35.690885 -31.757986 2.203231 35.511888 -59.831794 -15.741373 0.000000 0.000000 0.000000 10.764251 8.388023 2.699571 59.207865 19.549754 0.761393 75.406896 81.052389 72.262107 0.000000 0.000000 0.000000 
-0.105253 0.897985 0.424712 -5.339974 4.630285 -4.619797 9.318456 -0.308602 -12.543221 -3.795606 -0.503977 37.021235 5.067499 10.107897 -1.274541 0.000000 0.000000 0.000000 3.667181 2.378348 -18.881546 5.815552 -1.629059 29.951908 -4.042759 -10.711377 3.256526 0.000000 0.000000 0.000000 -4.327892 -0.217949 15.635315 5.872208 -0.505860 -28.412911 0.101366 -6.804325 29.244685 -3.230892 2.818610 -28.827484 0.000000 0.000000 0.000000 -16.782507 -1.486413 0.798287 -34.480995 -27.073774 0.731923 23.816250 -56.564031 -8.830279 0.000000 0.000000 0.000000 11.915974 10.728948 3.887900 55.999895 25.200961 3.470918 18.759329 83.484736 22.160728 0.000000 0.000000 0.000000 
-0.115251 0.897217 0.421415 -6.359365 3.069117 -4.800876 11.339074 -0.070605 -17.479786 -5.533038 0.372014 45.450459 5.988030 13.411487 5.343957 0.000000 0.000000 0.000000 5.423383 2.700966 -18.902728 6.129370 -1.568790 29.701213 -3.619015 -9.843505 3.462390 0.000000 0.000000 0.000000 -3.527446 -0.301834 15.961677 5.363318 -0.388043 -28.759687 2.234879 -4.490269 29.173077 -3.422894 3.194503 -28.639339 0.000000 0.000000 0.000000 -16.726719 -1.003545 0.242295 -35.187073 -21.674612 -0.621883 15.663449 -53.635511 -4.541095 0.000000 0.000000 0.000000 12.768704 11.750172 4.623210 54.545587 31.836232 6.571988 -17.951987 78.483297 -9.074148 0.000000 0.000000 0.000000 
-0.116988 0.897955 0.414011 -6.485987 0.912803 -4.352342 12.069569 0.171784 -19.990882 -8.028987 2.403189 50.325421 7.934212 16.718871 4.822688 0.000000 0.000000 0.000000 6.496829 2.935945 -19.048215 5.036386 -0.860747 28.484955 -2.911297 -8.292762 3.341570 0.000000 0.000000 0.000000 -3.123837 -0.294257 15.585522 5.821808 -0.516465 -28.511460 3.629144 -1.742664 28.459664 -3.446451 3.470858 -28.595492 0.000000 0.000000 0.000000 -17.544500 -0.864081 -0.185611 -34.888156 -15.768270 -2.036188 13.318068 -52.773815 -3.650320 0.000000 0.000000 0.000000 11.001292 14.274631 5.858055 55.648983 37.314602 9.897421 -32.845667 72.800367 -18.645213 0.000000 0.000000 0.000000 
-0.111252 0.901834 0.403322 -5.762094 -1.161566 -4.133658 11.278573 0.168084 -19.478610 -8.343776 3.400245 53.479586 8.406037 17.691385 8.149395 0.000000 0.000000 0.000000 6.734098 3.030513 -19.146554 2.867594 0.153137 27.281230 -1.948173 -6.497591 4.284062 0.000000 0.000000 0.000000 -2.978666 -0.261122 15.717482 5.690176 -0.443928 -29.205934 4.878527 0.391739 28.066901 -2.434578 3.016054 -26.864101 0.000000 0.000000 0.000000 -17.190231 0.387147 -1.025009 -35.056304 -12.027122 -2.884151 9.834224 -53.073649 -2.126791 0.000000 0.000000 0.000000 11.612179 14.805631 6.264241 58.359844 40.752602 12.823974 -30.153718 69.297974 -15.225384 0.000000 0.000000 0.000000 
-0.099388 0.903379 0.388668 -4.896018 -1.886673 -4.169364 9.323481 -0.104865 -15.951189 -4.553860 1.172382 51.549677 5.509213 13.188432 10.583792 0.000000 0.000000 0.000000 4.831618 2.814106 -19.600722 3.133305 0.117946 26.291424 -1.321583 -5.549884 5.409938 0.000000 0.000000 0.000000 -2.796557 -0.258714 15.394476 6.861657 -0.703965 -28.995710 3.981374 1.824288 28.957656 -1.735612 2.791529 -26.924485 0.000000 0.000000 0.000000 -16.494795 0.684928 -1.292836 -35.390044 -12.923327 -2.697967 14.536681 -52.419921 -4.472413 0.000000 0.000000 0.000000 12.822771 16.181997 7.223030 59.734365 43.163648 14.781973 -24.385044 66.222147 -10.231902 0.000000 0.000000 0.000000 
-0.082851 0.902997 0.369264 -4.459127 -2.744633 -3.611362 8.029698 -0.190955 -11.245796 -2.904374 0.367445 42.764701 4.901444 11.458504 6.348393 0.000000 0.000000 0.000000 3.775573 2.809202 -20.622104 2.213247 0.457775 24.605434 -0.680794 -4.629489 6.465092 0.000000 0.000000 0.000000 -2.571213 -0.257942 15.045370 7.739871 -0.937934 -28.370881 3.713031 3.250331 28.446779 -0.765998 2.287079 -24.576244 0.000000 0.000000 0.000000 -14.921716 0.324229 -1.157815 -36.316775 -13.444634 -2.523916 19.137102 -54.276300 -7.120578 0.000000 0.000000 0.000000 14.062646 17.385802 8.127728 61.255846 43.082855 15.457807 -17.505857 62.295867 -5.234054 0.000000 0.000000 0.000000 
-0.062905 0.897475 0.345624 -3.291971 -1.308526 -2.219525 5.272181 -0.450279 -9.702355 -1.791417 -0.344868 34.556940 5.059138 10.006780 -2.477580 0.000000 0.000000 0.000000 1.410141 2.716207 -23.527902 1.152052 0.692770 24.154835 -1.023647 -5.431176 6.915831 0.000000 0.000000 0.000000 -1.993933 -0.344751 15.013559 7.986326 -0.981054 -28.158367 2.034396 2.723154 28.394069 -0.276751 1.977177 -23.660333 0.000000 0.000000 0.000000 -15.943383 -0.497451 -0.907176 -34.920351 -16.736248 -1.596527 26.592433 -54.606287 -11.181155 0.000000 0.000000 0.000000 16.526553 16.437879 8.131082 59.347743 40.512827 13.079388 -4.432094 62.858999 2.487643 0.000000 0.000000 0.000000 
-0.042220 0.891027 0.319078 -1.202668 -1.711422 -3.465942 2.661816 -0.536567 -7.915087 -3.339563 0.393289 30.570419 5.429061 9.757634 -7.160156 0.000000 0.000000 0.000000 -1.351408 2.514846 -26.665269 -0.184038 1.410319 28.509031 -0.318054 -4.720204 8.897106 0.000000 0.000000 0.000000 -2.951595 -0.234293 18.213243 8.498075 -1.123197 -27.950845 1.445972 3.098460 28.225416 -2.172937 3.235748 -25.719044 0.000000 0.000000 0.000000 -16.946690 0.011523 -1.267239 -33.751950 -20.506160 -0.628304 32.155829 -55.400904 -14.411259 0.000000 0.000000 0.000000 15.024013 14.673003 7.013506 60.548594 36.115986 10.876791 4.720782 65.481997 8.536882 0.000000 0.000000 0.000000 
-0.024720 0.881645 0.293119 0.996625 -2.855703 -3.764727 -0.018190 -0.848807 -9.297963 -5.308019 1.364438 30.669313 6.266251 11.291098 -10.486125 0.000000 0.000000 0.000000 -3.235499 2.567412 -30.985258 -1.650839 2.621760 35.231692 -0.410717 -3.826570 5.861236 0.000000 0.000000 0.000000 -3.668666 -0.061718 19.133888 7.470791 -0.871312 -28.370558 -0.003142 1.771098 29.452996 -2.521715 3.110477 -26.609688 0.000000 0.000000 0.000000 -18.402063 -0.128707 -0.774075 -33.508913 -22.725713 -0.318444 40.350630 -55.094694 -18.170574 0.000000 0.000000 0.000000 12.316999 13.747465 5.871797 63.487871 30.161553 7.854880 18.536713 68.918072 18.396616 0.000000 0.000000 0.000000 
-0.012702 0.873744 0.270725 3.001133 -3.307256 -4.818190 -2.276976 -1.157653 -10.279767 -6.781003 2.104546 31.518121 6.692390 12.216015 -12.114263 0.000000 0.000000 0.000000 -3.816119 2.793069 -34.587502 -2.092757 4.292916 48.700606 -2.275765 -7.660725 5.210650 0.000000 0.000000 0.000000 -4.105842 0.055192 20.554725 7.367719 -0.804733 -28.917704 -2.251180 1.085485 30.871517 -4.986307 4.386847 -29.097065 0.000000 0.000000 0.000000 -22.032530 0.842658 -1.175815 -34.199938 -25.107763 0.092903 45.207932 -57.052772 -21.233946 0.000000 0.000000 0.000000 9.414317 11.836453 4.638306 66.109913 24.352672 4.519095 43.153676 70.052316 37.016938 0.000000 0.000000 0.000000 
